<!-- <svg xmlns="http://www.w3.org/2000/svg" width="24" height="24" viewBox="0 0 24 24" fill="none">
<path d="M2.5 12C2.5 7.52166 2.5 5.28249 3.89124 3.89124C5.28249 2.5 7.52166 2.5 12 2.5C16.4783 2.5 18.7175 2.5 20.1088 3.89124C21.5 5.28249 21.5 7.52166 21.5 12C21.5 16.4783 21.5 18.7175 20.1088 20.1088C18.7175 21.5 16.4783 21.5 12 21.5C7.52166 21.5 5.28249 21.5 3.89124 20.1088C2.5 18.7175 2.5 16.4783 2.5 12Z" stroke="#000000" stroke-width="1.5" stroke-linejoin="round"/>
<path d="M16.9265 8.02637H13.9816C12.9378 8.02637 12.0894 8.86847 12.0817 9.91229L11.9964 21.4268M10.082 14.0017H14.8847" stroke="#000000" stroke-width="1.5" stroke-linecap="round" stroke-linejoin="round"/>
</svg> -->

<!-- <svg xmlns="http://www.w3.org/2000/svg" width="24" height="24" viewBox="0 0 24 24" fill="none">
  <path fill-rule="evenodd" clip-rule="evenodd" d="M6.18182 10.3333C5.20406 10.3333 5 10.5252 5 11.4444V13.1111C5 14.0304 5.20406 14.2222 6.18182 14.2222H8.54545V20.8889C8.54545 21.8081 8.74951 22 9.72727 22H12.0909C13.0687 22 13.2727 21.8081 13.2727 20.8889V14.2222H15.9267C16.6683 14.2222 16.8594 14.0867 17.0631 13.4164L17.5696 11.7497C17.9185 10.6014 17.7035 10.3333 16.4332 10.3333H13.2727V7.55556C13.2727 6.94191 13.8018 6.44444 14.4545 6.44444H17.8182C18.7959 6.44444 19 6.25259 19 5.33333V3.11111C19 2.19185 18.7959 2 17.8182 2H14.4545C11.191 2 8.54545 4.48731 8.54545 7.55556V10.3333H6.18182Z" stroke="#1877F2" stroke-width="1.5" stroke-linejoin="round"/>
</svg> -->

<svg xmlns="http://www.w3.org/2000/svg" width="24" height="24" viewBox="0 0 24 24" fill="#1877F2">
  <path fill-rule="evenodd" clip-rule="evenodd" d="M6.18182 10.3333C5.20406 10.3333 5 10.5252 5 11.4444V13.1111C5 14.0304 5.20406 14.2222 6.18182 14.2222H8.54545V20.8889C8.54545 21.8081 8.74951 22 9.72727 22H12.0909C13.0687 22 13.2727 21.8081 13.2727 20.8889V14.2222H15.9267C16.6683 14.2222 16.8594 14.0867 17.0631 13.4164L17.5696 11.7497C17.9185 10.6014 17.7035 10.3333 16.4332 10.3333H13.2727V7.55556C13.2727 6.94191 13.8018 6.44444 14.4545 6.44444H17.8182C18.7959 6.44444 19 6.25259 19 5.33333V3.11111C19 2.19185 18.7959 2 17.8182 2H14.4545C11.191 2 8.54545 4.48731 8.54545 7.55556V10.3333H6.18182Z" stroke="#1877F2" stroke-width="1.5" stroke-linejoin="round"/>
</svg>

